<svg width="80" height="80" viewBox="0 0 80 80" fill="none" xmlns="http://www.w3.org/2000/svg">
<g clip-path="url(#clip0_698_10)">
<path d="M74.9759 20.499C76.1742 22.7105 77.1777 25.0213 77.9754 27.4055C79.6291 32.3766 80.2794 37.6245 79.889 42.8471C79.4986 48.0697 78.0751 53.1637 75.7005 57.8358C69.0928 70.9171 54.9457 79.8863 40.2096 79.9993C25.4044 80.1122 11.6394 71.4806 4.70386 58.5689C2.56521 54.5774 1.12614 50.2514 0.448641 45.7774C-0.325258 40.7863 -0.0677032 35.8406 1.01797 30.9208C1.48626 28.804 2.06545 26.6946 2.93547 24.7313C6.1888 17.3865 10.985 11.2645 17.7739 6.78054C27.9048 0.0913596 40.949 -1.88053 52.5414 1.90976C62.1794 5.06158 69.8654 11.8785 74.9759 20.499Z" fill="#010101"/>
<path d="M41.7486 3.58032C51.988 3.88605 61.7628 8.56283 69.089 18.0588C73.5796 23.8799 75.9284 30.5089 76.3979 37.8267C76.4546 38.7022 76.1625 39.2424 75.5008 39.709C72.8279 41.5937 69.9467 43.0904 66.9337 44.3575C62.693 46.1359 58.2803 47.4759 53.765 48.3565C52.8507 48.5358 51.9289 48.6746 51.0133 48.8415C50.4809 48.9398 50.2135 48.8158 50.0052 48.2276C48.1567 42.9861 43.5466 40.1891 38.2698 41.229C34.3831 41.9977 31.8161 44.4152 30.5616 48.1466C30.3152 48.8636 30.1032 49.0724 29.3059 48.9643C24.193 48.287 19.1789 47.0073 14.3689 45.1519C10.7274 43.7387 7.24975 42.0001 4.04571 39.7495C3.64767 39.4683 3.56017 39.1675 3.57372 38.7317C3.76781 32.4842 5.57993 26.3928 8.83414 21.049C12.0884 15.7052 16.6741 11.2906 22.1461 8.23377C27.6915 5.12492 33.6597 3.58769 41.7486 3.58032Z" fill="#ED1E25"/>
<path d="M74.7331 48.4511C70.7354 64.5736 55.9598 77.5419 37.2137 76.2601C18.6525 74.988 7.05999 60.4568 4.85043 48.5395C6.38344 49.2566 7.88934 49.9945 9.42236 50.671C15.3375 53.2789 21.5114 54.9524 27.9072 55.8708C28.0787 55.9029 28.2519 55.9246 28.426 55.9359C30.3842 55.9899 31.7718 56.8064 33.205 58.2798C37.7214 62.9259 45.1105 62.0431 48.7323 56.6714C48.8321 56.5134 48.9678 56.3809 49.1283 56.2846C49.2887 56.1882 49.4697 56.1306 49.6565 56.1164C56.1582 55.3357 62.5281 53.7033 68.601 51.2616C70.1895 50.6244 71.7274 49.8619 73.2838 49.1522C73.7287 48.9484 74.1662 48.7261 74.7331 48.4511Z" fill="white"/>
<path d="M40.2354 44.538C43.8929 44.527 46.9281 47.5143 46.9318 51.1314C46.9355 54.7486 43.9077 57.7617 40.2563 57.7482C39.3902 57.7516 38.5319 57.5846 37.7307 57.2567C36.9294 56.9289 36.201 56.4467 35.5873 55.8378C34.9735 55.2289 34.4864 54.5052 34.1539 53.7084C33.8215 52.9115 33.6502 52.057 33.6498 51.1941C33.635 47.4848 36.5384 44.5491 40.2354 44.538Z" fill="white"/>
</g>
<defs>
<clipPath id="clip0_698_10">
<rect width="80" height="80" fill="white"/>
</clipPath>
</defs>
</svg>
